<mxfile host="app.diagrams.net" modified="2023-10-18T14:06:14.357Z" agent="Mozilla/5.0 (Windows NT 10.0; Win64; x64) AppleWebKit/537.36 (KHTML, like Gecko) Chrome/117.0.0.0 Safari/537.36" etag="2SGkS33sDjjmAPiXwXB1" version="22.0.4" type="device">
  <diagram name="Seite-1" id="UOWEdlWzljSKDWlqtR1o">
    <mxGraphModel dx="2074" dy="1110" grid="1" gridSize="10" guides="1" tooltips="1" connect="1" arrows="1" fold="1" page="1" pageScale="1" pageWidth="827" pageHeight="1169" math="0" shadow="0">
      <root>
        <mxCell id="0" />
        <mxCell id="1" parent="0" />
        <mxCell id="_fuEhAQ-aV4Nd_yA150e-54" style="edgeStyle=orthogonalEdgeStyle;rounded=0;orthogonalLoop=1;jettySize=auto;html=1;exitX=1;exitY=0.5;exitDx=0;exitDy=0;" edge="1" parent="1" source="_fuEhAQ-aV4Nd_yA150e-1" target="_fuEhAQ-aV4Nd_yA150e-53">
          <mxGeometry relative="1" as="geometry">
            <Array as="points">
              <mxPoint x="420" y="50" />
              <mxPoint x="420" y="120" />
              <mxPoint x="1000" y="120" />
            </Array>
          </mxGeometry>
        </mxCell>
        <mxCell id="_fuEhAQ-aV4Nd_yA150e-1" value="Win Game" style="rounded=0;whiteSpace=wrap;html=1;" vertex="1" parent="1">
          <mxGeometry x="230" y="20" width="120" height="60" as="geometry" />
        </mxCell>
        <mxCell id="_fuEhAQ-aV4Nd_yA150e-39" style="edgeStyle=orthogonalEdgeStyle;rounded=0;orthogonalLoop=1;jettySize=auto;html=1;exitX=0.5;exitY=1;exitDx=0;exitDy=0;entryX=0;entryY=0.25;entryDx=0;entryDy=0;" edge="1" parent="1" source="_fuEhAQ-aV4Nd_yA150e-2" target="_fuEhAQ-aV4Nd_yA150e-36">
          <mxGeometry relative="1" as="geometry" />
        </mxCell>
        <mxCell id="_fuEhAQ-aV4Nd_yA150e-46" style="edgeStyle=orthogonalEdgeStyle;rounded=0;orthogonalLoop=1;jettySize=auto;html=1;exitX=1;exitY=0.5;exitDx=0;exitDy=0;" edge="1" parent="1" source="_fuEhAQ-aV4Nd_yA150e-2" target="_fuEhAQ-aV4Nd_yA150e-3">
          <mxGeometry relative="1" as="geometry" />
        </mxCell>
        <mxCell id="_fuEhAQ-aV4Nd_yA150e-56" style="edgeStyle=orthogonalEdgeStyle;rounded=0;orthogonalLoop=1;jettySize=auto;html=1;exitX=0.75;exitY=1;exitDx=0;exitDy=0;entryX=0.25;entryY=0;entryDx=0;entryDy=0;" edge="1" parent="1" source="_fuEhAQ-aV4Nd_yA150e-2" target="_fuEhAQ-aV4Nd_yA150e-53">
          <mxGeometry relative="1" as="geometry" />
        </mxCell>
        <mxCell id="_fuEhAQ-aV4Nd_yA150e-2" value="Opener" style="rounded=0;whiteSpace=wrap;html=1;" vertex="1" parent="1">
          <mxGeometry x="70" y="170" width="120" height="60" as="geometry" />
        </mxCell>
        <mxCell id="_fuEhAQ-aV4Nd_yA150e-37" style="edgeStyle=orthogonalEdgeStyle;rounded=0;orthogonalLoop=1;jettySize=auto;html=1;exitX=0.75;exitY=1;exitDx=0;exitDy=0;entryX=0;entryY=0.5;entryDx=0;entryDy=0;" edge="1" parent="1" source="_fuEhAQ-aV4Nd_yA150e-3" target="_fuEhAQ-aV4Nd_yA150e-36">
          <mxGeometry relative="1" as="geometry" />
        </mxCell>
        <mxCell id="_fuEhAQ-aV4Nd_yA150e-38" style="edgeStyle=orthogonalEdgeStyle;rounded=0;orthogonalLoop=1;jettySize=auto;html=1;exitX=0.5;exitY=1;exitDx=0;exitDy=0;entryX=0;entryY=0.75;entryDx=0;entryDy=0;" edge="1" parent="1" source="_fuEhAQ-aV4Nd_yA150e-3" target="_fuEhAQ-aV4Nd_yA150e-36">
          <mxGeometry relative="1" as="geometry" />
        </mxCell>
        <mxCell id="_fuEhAQ-aV4Nd_yA150e-57" style="edgeStyle=orthogonalEdgeStyle;rounded=0;orthogonalLoop=1;jettySize=auto;html=1;exitX=0.25;exitY=1;exitDx=0;exitDy=0;entryX=0.25;entryY=0;entryDx=0;entryDy=0;" edge="1" parent="1" source="_fuEhAQ-aV4Nd_yA150e-3" target="_fuEhAQ-aV4Nd_yA150e-53">
          <mxGeometry relative="1" as="geometry" />
        </mxCell>
        <mxCell id="_fuEhAQ-aV4Nd_yA150e-3" value="Transition" style="rounded=0;whiteSpace=wrap;html=1;" vertex="1" parent="1">
          <mxGeometry x="390" y="170" width="120" height="60" as="geometry" />
        </mxCell>
        <mxCell id="_fuEhAQ-aV4Nd_yA150e-4" value="" style="endArrow=classic;html=1;rounded=0;" edge="1" parent="1" source="_fuEhAQ-aV4Nd_yA150e-1" target="_fuEhAQ-aV4Nd_yA150e-2">
          <mxGeometry width="50" height="50" relative="1" as="geometry">
            <mxPoint x="240" y="290" as="sourcePoint" />
            <mxPoint x="290" y="240" as="targetPoint" />
          </mxGeometry>
        </mxCell>
        <mxCell id="_fuEhAQ-aV4Nd_yA150e-5" value="" style="endArrow=classic;html=1;rounded=0;" edge="1" parent="1" source="_fuEhAQ-aV4Nd_yA150e-1" target="_fuEhAQ-aV4Nd_yA150e-3">
          <mxGeometry width="50" height="50" relative="1" as="geometry">
            <mxPoint x="420" y="360" as="sourcePoint" />
            <mxPoint x="470" y="310" as="targetPoint" />
          </mxGeometry>
        </mxCell>
        <mxCell id="_fuEhAQ-aV4Nd_yA150e-10" value="SupplyDepot" style="rounded=0;whiteSpace=wrap;html=1;" vertex="1" parent="1">
          <mxGeometry x="50" y="640" width="100" height="40" as="geometry" />
        </mxCell>
        <mxCell id="_fuEhAQ-aV4Nd_yA150e-11" value="StaticDefence" style="rounded=0;whiteSpace=wrap;html=1;" vertex="1" parent="1">
          <mxGeometry x="50" y="690" width="100" height="40" as="geometry" />
        </mxCell>
        <mxCell id="_fuEhAQ-aV4Nd_yA150e-12" value="Production" style="rounded=0;whiteSpace=wrap;html=1;" vertex="1" parent="1">
          <mxGeometry x="50" y="740" width="100" height="40" as="geometry" />
        </mxCell>
        <mxCell id="_fuEhAQ-aV4Nd_yA150e-13" value="Building&lt;br&gt;- position" style="ellipse;whiteSpace=wrap;html=1;" vertex="1" parent="1">
          <mxGeometry x="40" y="550" width="120" height="80" as="geometry" />
        </mxCell>
        <mxCell id="_fuEhAQ-aV4Nd_yA150e-14" value="Unit&lt;br&gt;- facility" style="ellipse;whiteSpace=wrap;html=1;" vertex="1" parent="1">
          <mxGeometry x="170" y="550" width="120" height="80" as="geometry" />
        </mxCell>
        <mxCell id="_fuEhAQ-aV4Nd_yA150e-24" value="PaidProduction&lt;br&gt;- cost&lt;br&gt;- timing" style="ellipse;whiteSpace=wrap;html=1;" vertex="1" parent="1">
          <mxGeometry x="170" y="460" width="120" height="80" as="geometry" />
        </mxCell>
        <mxCell id="_fuEhAQ-aV4Nd_yA150e-25" value="Upgrade&lt;br&gt;- facility" style="ellipse;whiteSpace=wrap;html=1;" vertex="1" parent="1">
          <mxGeometry x="300" y="550" width="120" height="80" as="geometry" />
        </mxCell>
        <mxCell id="_fuEhAQ-aV4Nd_yA150e-26" value="Army" style="rounded=0;whiteSpace=wrap;html=1;" vertex="1" parent="1">
          <mxGeometry x="180" y="640" width="100" height="40" as="geometry" />
        </mxCell>
        <mxCell id="_fuEhAQ-aV4Nd_yA150e-27" value="SCV" style="rounded=0;whiteSpace=wrap;html=1;" vertex="1" parent="1">
          <mxGeometry x="180" y="690" width="100" height="40" as="geometry" />
        </mxCell>
        <mxCell id="_fuEhAQ-aV4Nd_yA150e-28" value="Techlab&lt;br&gt;- facility" style="rounded=0;whiteSpace=wrap;html=1;" vertex="1" parent="1">
          <mxGeometry x="310" y="640" width="100" height="40" as="geometry" />
        </mxCell>
        <mxCell id="_fuEhAQ-aV4Nd_yA150e-29" value="Upgradfacility" style="rounded=0;whiteSpace=wrap;html=1;" vertex="1" parent="1">
          <mxGeometry x="310" y="690" width="100" height="40" as="geometry" />
        </mxCell>
        <mxCell id="_fuEhAQ-aV4Nd_yA150e-30" value="Resources&lt;br&gt;- projection" style="rounded=0;whiteSpace=wrap;html=1;" vertex="1" parent="1">
          <mxGeometry x="240" y="950" width="100" height="40" as="geometry" />
        </mxCell>
        <mxCell id="_fuEhAQ-aV4Nd_yA150e-33" style="edgeStyle=orthogonalEdgeStyle;rounded=0;orthogonalLoop=1;jettySize=auto;html=1;exitX=0.25;exitY=1;exitDx=0;exitDy=0;" edge="1" parent="1" source="_fuEhAQ-aV4Nd_yA150e-31" target="_fuEhAQ-aV4Nd_yA150e-32">
          <mxGeometry relative="1" as="geometry" />
        </mxCell>
        <mxCell id="_fuEhAQ-aV4Nd_yA150e-34" style="edgeStyle=orthogonalEdgeStyle;rounded=0;orthogonalLoop=1;jettySize=auto;html=1;exitX=0.75;exitY=1;exitDx=0;exitDy=0;" edge="1" parent="1" source="_fuEhAQ-aV4Nd_yA150e-31" target="_fuEhAQ-aV4Nd_yA150e-30">
          <mxGeometry relative="1" as="geometry" />
        </mxCell>
        <mxCell id="_fuEhAQ-aV4Nd_yA150e-31" value="Timing&lt;br&gt;- fixed random&lt;br&gt;- conditioned (fastest)" style="rounded=0;whiteSpace=wrap;html=1;" vertex="1" parent="1">
          <mxGeometry x="160" y="820" width="140" height="90" as="geometry" />
        </mxCell>
        <mxCell id="_fuEhAQ-aV4Nd_yA150e-32" value="Position&lt;br&gt;- buildqueue" style="rounded=0;whiteSpace=wrap;html=1;" vertex="1" parent="1">
          <mxGeometry x="120" y="950" width="100" height="40" as="geometry" />
        </mxCell>
        <mxCell id="_fuEhAQ-aV4Nd_yA150e-43" style="edgeStyle=orthogonalEdgeStyle;rounded=0;orthogonalLoop=1;jettySize=auto;html=1;exitX=0.5;exitY=1;exitDx=0;exitDy=0;entryX=0.5;entryY=0;entryDx=0;entryDy=0;" edge="1" parent="1" source="_fuEhAQ-aV4Nd_yA150e-36" target="_fuEhAQ-aV4Nd_yA150e-41">
          <mxGeometry relative="1" as="geometry">
            <Array as="points">
              <mxPoint x="610" y="610" />
              <mxPoint x="430" y="610" />
              <mxPoint x="430" y="340" />
              <mxPoint x="230" y="340" />
            </Array>
          </mxGeometry>
        </mxCell>
        <mxCell id="_fuEhAQ-aV4Nd_yA150e-50" style="edgeStyle=orthogonalEdgeStyle;rounded=0;orthogonalLoop=1;jettySize=auto;html=1;exitX=0.75;exitY=1;exitDx=0;exitDy=0;entryX=0.75;entryY=0;entryDx=0;entryDy=0;" edge="1" parent="1" source="_fuEhAQ-aV4Nd_yA150e-36" target="_fuEhAQ-aV4Nd_yA150e-47">
          <mxGeometry relative="1" as="geometry" />
        </mxCell>
        <mxCell id="_fuEhAQ-aV4Nd_yA150e-74" style="edgeStyle=orthogonalEdgeStyle;rounded=0;orthogonalLoop=1;jettySize=auto;html=1;exitX=0.5;exitY=0;exitDx=0;exitDy=0;entryX=1;entryY=0.5;entryDx=0;entryDy=0;" edge="1" parent="1" source="_fuEhAQ-aV4Nd_yA150e-36" target="_fuEhAQ-aV4Nd_yA150e-3">
          <mxGeometry relative="1" as="geometry" />
        </mxCell>
        <mxCell id="_fuEhAQ-aV4Nd_yA150e-36" value="Buildorder" style="rounded=0;whiteSpace=wrap;html=1;" vertex="1" parent="1">
          <mxGeometry x="550" y="170" width="120" height="420" as="geometry" />
        </mxCell>
        <mxCell id="_fuEhAQ-aV4Nd_yA150e-41" value="BuildorderManager" style="rounded=0;whiteSpace=wrap;html=1;" vertex="1" parent="1">
          <mxGeometry x="170" y="360" width="120" height="60" as="geometry" />
        </mxCell>
        <mxCell id="_fuEhAQ-aV4Nd_yA150e-52" style="edgeStyle=orthogonalEdgeStyle;rounded=0;orthogonalLoop=1;jettySize=auto;html=1;exitX=1;exitY=0.5;exitDx=0;exitDy=0;entryX=1;entryY=0.5;entryDx=0;entryDy=0;" edge="1" parent="1" source="_fuEhAQ-aV4Nd_yA150e-44" target="_fuEhAQ-aV4Nd_yA150e-47">
          <mxGeometry relative="1" as="geometry" />
        </mxCell>
        <mxCell id="_fuEhAQ-aV4Nd_yA150e-55" style="edgeStyle=orthogonalEdgeStyle;rounded=0;orthogonalLoop=1;jettySize=auto;html=1;exitX=1;exitY=0.25;exitDx=0;exitDy=0;entryX=0.75;entryY=0;entryDx=0;entryDy=0;" edge="1" parent="1" source="_fuEhAQ-aV4Nd_yA150e-44" target="_fuEhAQ-aV4Nd_yA150e-53">
          <mxGeometry relative="1" as="geometry" />
        </mxCell>
        <mxCell id="_fuEhAQ-aV4Nd_yA150e-44" value="GameState&lt;br&gt;- value assessment" style="rounded=0;whiteSpace=wrap;html=1;" vertex="1" parent="1">
          <mxGeometry x="560" y="20" width="120" height="60" as="geometry" />
        </mxCell>
        <mxCell id="_fuEhAQ-aV4Nd_yA150e-51" style="edgeStyle=orthogonalEdgeStyle;rounded=0;orthogonalLoop=1;jettySize=auto;html=1;exitX=0;exitY=0.5;exitDx=0;exitDy=0;entryX=1;entryY=0.5;entryDx=0;entryDy=0;" edge="1" parent="1" source="_fuEhAQ-aV4Nd_yA150e-47" target="_fuEhAQ-aV4Nd_yA150e-31">
          <mxGeometry relative="1" as="geometry" />
        </mxCell>
        <mxCell id="_fuEhAQ-aV4Nd_yA150e-47" value="Priotities" style="rounded=0;whiteSpace=wrap;html=1;" vertex="1" parent="1">
          <mxGeometry x="550" y="660" width="120" height="410" as="geometry" />
        </mxCell>
        <mxCell id="_fuEhAQ-aV4Nd_yA150e-48" value="" style="endArrow=classic;html=1;rounded=0;entryX=0.5;entryY=0;entryDx=0;entryDy=0;exitX=0.25;exitY=1;exitDx=0;exitDy=0;" edge="1" parent="1" source="_fuEhAQ-aV4Nd_yA150e-44" target="_fuEhAQ-aV4Nd_yA150e-3">
          <mxGeometry width="50" height="50" relative="1" as="geometry">
            <mxPoint x="480" y="110" as="sourcePoint" />
            <mxPoint x="530" y="60" as="targetPoint" />
          </mxGeometry>
        </mxCell>
        <mxCell id="_fuEhAQ-aV4Nd_yA150e-53" value="Unit-Control Manager" style="rounded=0;whiteSpace=wrap;html=1;" vertex="1" parent="1">
          <mxGeometry x="920" y="360" width="160" height="60" as="geometry" />
        </mxCell>
        <mxCell id="_fuEhAQ-aV4Nd_yA150e-58" value="Troop-Taskarea&lt;br&gt;- troop assignment&lt;br&gt;- positions&lt;br&gt;- pathing" style="ellipse;whiteSpace=wrap;html=1;" vertex="1" parent="1">
          <mxGeometry x="940" y="460" width="120" height="80" as="geometry" />
        </mxCell>
        <mxCell id="_fuEhAQ-aV4Nd_yA150e-59" value="Offense&lt;br&gt;- offense control" style="ellipse;whiteSpace=wrap;html=1;" vertex="1" parent="1">
          <mxGeometry x="820" y="550" width="120" height="80" as="geometry" />
        </mxCell>
        <mxCell id="_fuEhAQ-aV4Nd_yA150e-60" value="Defense&lt;br&gt;- positions&lt;br&gt;- assets" style="ellipse;whiteSpace=wrap;html=1;" vertex="1" parent="1">
          <mxGeometry x="1060" y="550" width="120" height="80" as="geometry" />
        </mxCell>
        <mxCell id="_fuEhAQ-aV4Nd_yA150e-61" value="Flex&lt;br&gt;- positions&lt;br&gt;- pathing" style="ellipse;whiteSpace=wrap;html=1;" vertex="1" parent="1">
          <mxGeometry x="940" y="550" width="120" height="80" as="geometry" />
        </mxCell>
        <mxCell id="_fuEhAQ-aV4Nd_yA150e-62" value="Raid" style="rounded=0;whiteSpace=wrap;html=1;" vertex="1" parent="1">
          <mxGeometry x="827" y="640" width="100" height="40" as="geometry" />
        </mxCell>
        <mxCell id="_fuEhAQ-aV4Nd_yA150e-63" value="Conquer" style="rounded=0;whiteSpace=wrap;html=1;" vertex="1" parent="1">
          <mxGeometry x="827" y="690" width="100" height="40" as="geometry" />
        </mxCell>
        <mxCell id="_fuEhAQ-aV4Nd_yA150e-64" value="Retreat" style="rounded=0;whiteSpace=wrap;html=1;" vertex="1" parent="1">
          <mxGeometry x="827" y="740" width="100" height="40" as="geometry" />
        </mxCell>
        <mxCell id="_fuEhAQ-aV4Nd_yA150e-65" value="Join" style="rounded=0;whiteSpace=wrap;html=1;" vertex="1" parent="1">
          <mxGeometry x="950" y="640" width="100" height="40" as="geometry" />
        </mxCell>
        <mxCell id="_fuEhAQ-aV4Nd_yA150e-66" value="Disjoin" style="rounded=0;whiteSpace=wrap;html=1;" vertex="1" parent="1">
          <mxGeometry x="950" y="740" width="100" height="40" as="geometry" />
        </mxCell>
        <mxCell id="_fuEhAQ-aV4Nd_yA150e-67" value="Gather" style="rounded=0;whiteSpace=wrap;html=1;" vertex="1" parent="1">
          <mxGeometry x="950" y="690" width="100" height="40" as="geometry" />
        </mxCell>
        <mxCell id="_fuEhAQ-aV4Nd_yA150e-68" value="Hold Position" style="rounded=0;whiteSpace=wrap;html=1;" vertex="1" parent="1">
          <mxGeometry x="1070" y="640" width="100" height="40" as="geometry" />
        </mxCell>
        <mxCell id="_fuEhAQ-aV4Nd_yA150e-69" value="Patrol (idle)" style="rounded=0;whiteSpace=wrap;html=1;" vertex="1" parent="1">
          <mxGeometry x="1070" y="690" width="100" height="40" as="geometry" />
        </mxCell>
      </root>
    </mxGraphModel>
  </diagram>
</mxfile>
